<svg xmlns="http://www.w3.org/2000/svg" enable-background="new 0 0 1024 1024" viewBox="0 0 1024 1024"><path d="M989.1 262.6c-.3-1-.7-1.9-1.1-2.9-.1-.2-.2-.5-.3-.7-.3-.7-.6-1.3-1-1.9-.2-.4-.5-.8-.7-1.2-.3-.4-.5-.8-.8-1.2-.3-.4-.6-.8-.9-1.1-.6-.8-1.3-1.5-1.9-2.2 0 0 0-.1-.1-.1-5.3-5.8-12.8-9.5-21.5-9.5H297.7c-2.2 0-4.4 0-6.6 0-5.5-16.6-10.9-33.2-16.4-49.8-5.9-17.8-11.4-35.7-17.6-53.4-.1-.3-.2-.5-.3-.8-4.2-12.6-15.3-22-28.9-22H63.2c-15.7 0-30.7 13.8-30 30 .7 16.3 13.2 30 30 30h143c2.4 7 4.8 14.6 7.2 21.8 9 27.5 18.1 55 27.1 82.4 11.7 35.5 23.4 71 35.1 106.5 4.7 14.4 9.5 28.8 14.2 43.2 13.8 41.8 27.5 83.6 41.3 125.4 3 9.2 6.1 18.4 9.1 27.6 0 .1-.1.1-.1.2-14 24.8-27.9 49.7-41.9 74.5-2.3 4.2-4.7 8.2-7 12.3-11.1 19.7 2.9 45 25.9 45H775c21.1 0 42.3.6 63.5.2.3 0 .6.1.9.1 15.7 0 30.7-13.9 30-30.1-.7-16.3-13.2-30.1-30-30.1H381.5c-4.3 0-8.6 0-12.9 0 7.3-12.9 14.5-25.8 21.8-38.7 0-.1.1-.2.1-.2 0 0-.1 0-.1 0H782c18.9 0 37.8 1 56.7 0h0c0 0 0 0 0 0 .3 0 .5.1.8.1 14.3 0 24.1-9.5 28.9-22 13.7-35.3 27.3-70.7 41-106 21.8-56.3 43.6-112.7 65.4-169-7.3 18.8-14.5 37.6-21.8 56.4-14.5 37.6-29 75.1-43.6 112.7-11.4 29.5-22.8 59-34.2 88.5 11.4-29.5 23-59 34.4-88.6 21.8-56.3 43.5-112.7 65.5-169v0c4-11.1 12.8-33.4 12.8-33.4s1.3-3.7 2-5.5c.2-.5.3-1 .5-1.5C991.5 273.9 990.8 267.8 989.1 262.6zM749.1 371.9l-17.7 17.7c-25.7 25.7-51.5 51.5-77.2 77.2-16.2 16.1-32.3 32.3-48.5 48.5-7.6 7.7-20.6 7.6-28.3 0-2.9-2.9-5.7-5.7-8.5-8.5-19.7-19.7-39.5-39.5-59.2-59.2-7.9-7.9-7.3-20.3 0-28.3 7.3-8 20.9-7.4 28.3 0 2.8 2.8 5.7 5.7 8.5 8.5 15 15 30.1 29.9 45.1 45 1.2-1.2 2.3-2.3 3.5-3.5 25.7-25.7 51.5-51.5 77.2-77.2l48.5-48.5c7.9-7.9 20.3-7.3 28.3 0C757.1 351 756.5 364.5 749.1 371.9zM806.2 880.3c-20.4 24.7-56.4 34.3-86.3 23-30.4-11.5-50.8-40.1-51.4-72.6 0 0-.2 0-.2-.1 0-.2-.2-.5-.2-.7v-.1c0-.2.2-.5.2-.7.7-36 26.6-68.7 62.5-75.7 32.3-6.3 65.5 8 82.7 36.1C830.7 818 827.2 854.8 806.2 880.3zM461.4 880.3c-20.4 24.7-56.4 34.3-86.3 23-30.4-11.5-50.6-40.1-51.2-72.6 0-.3.1-.5.1-.8v-.1c0-.2-.2-.5-.1-.7.7-36 26.4-68.7 62.3-75.7 32.3-6.3 65.4 8 82.6 36.1C486.1 818 482.5 854.8 461.4 880.3z"/></svg>